<svg width="60" height="60" viewBox="0 0 60 60" fill="none" xmlns="http://www.w3.org/2000/svg">
<g id="tool">
<path id="Vector" d="M17.4996 24.9996H24.9996V17.4996L16.2496 8.74964C19.0487 7.41282 22.1934 6.97665 25.2506 7.50119C28.3079 8.02573 31.1273 9.48518 33.3207 11.6786C35.5141 13.872 36.9735 16.6914 37.4981 19.7486C38.0226 22.8059 37.5865 25.9506 36.2496 28.7496L51.2496 43.7496C52.2442 44.7442 52.8029 46.0931 52.8029 47.4996C52.8029 48.9062 52.2442 50.2551 51.2496 51.2496C50.2551 52.2442 48.9062 52.8029 47.4996 52.8029C46.0931 52.8029 44.7442 52.2442 43.7496 51.2496L28.7496 36.2496C25.9506 37.5865 22.8059 38.0226 19.7486 37.4981C16.6914 36.9735 13.872 35.5141 11.6786 33.3207C9.48518 31.1273 8.02573 28.3079 7.50119 25.2506C6.97665 22.1934 7.41282 19.0487 8.74964 16.2496L17.4996 24.9996Z" stroke="#221551" stroke-width="2.5" stroke-linecap="round" stroke-linejoin="round"/>
</g>
</svg>
